# xmcd
#
# Track frame offsets:
#  150
#  15732
#  30959
#  47864
#  68474
#  83988
#  96833
#  109215
#  122483
#  139252
#  150152
#  163144
#
# Disc length: 2411 seconds
#
# Revision: 2
# Processed by: cddbd v1.5.1PL0 Copyright (c) Steve Scherf et al.
# Submitted via: Collectorz.com_Music_Collector 6.9
#
DISCID=8e09690c
DTITLE=Tom Blues Man Hunter - Expressions Of A Blues Man
DYEAR=2005
DGENRE=Blues
TTITLE0=Hell Hounds
TTITLE1=Give Me One More Chance
TTITLE2=Big Time Party Man
TTITLE3=Missing You
TTITLE4=She's So Doggone Cool
TTITLE5=That's It
TTITLE6=I've Got A Feeling
TTITLE7=I Tried To Leave You
TTITLE8=Putting My Heart Up For Sale
TTITLE9=Your Wish Is My Command
TTITLE10=I'm Gonna Move
TTITLE11=You Ought To Be Ashamed
EXTD=
EXTT0=
EXTT1=
EXTT2=
EXTT3=
EXTT4=
EXTT5=
EXTT6=
EXTT7=
EXTT8=
EXTT9=
EXTT10=
EXTT11=
PLAYORDER=
